ISO-10303-21;
HEADER;
FILE_DESCRIPTION(('Open CASCADE Model'),'2;1');
FILE_NAME('Open CASCADE Shape Model','2026-02-11T11:11:29',('Author'),(
    'Open CASCADE'),'Open CASCADE STEP processor 7.8','Open CASCADE 7.8'
  ,'Unknown');
FILE_SCHEMA(('AUTOMOTIVE_DESIGN { 1 0 10303 214 1 1 1 1 }'));
ENDSEC;
DATA;
#1 = APPLICATION_PROTOCOL_DEFINITION('international standard',
  'automotive_design',2000,#2);
#2 = APPLICATION_CONTEXT(
  'core data for automotive mechanical design processes');
#3 = SHAPE_DEFINITION_REPRESENTATION(#4,#10);
#4 = PRODUCT_DEFINITION_SHAPE('','',#5);
#5 = PRODUCT_DEFINITION('design','',#6,#9);
#6 = PRODUCT_DEFINITION_FORMATION('','',#7);
#7 = PRODUCT('Open CASCADE STEP translator 7.8 1',
  'Open CASCADE STEP translator 7.8 1','',(#8));
#8 = PRODUCT_CONTEXT('',#2,'mechanical');
#9 = PRODUCT_DEFINITION_CONTEXT('part definition',#2,'design');
#10 = ADVANCED_BREP_SHAPE_REPRESENTATION('',(#11,#15),#888);
#11 = AXIS2_PLACEMENT_3D('',#12,#13,#14);
#12 = CARTESIAN_POINT('',(0.,0.,0.));
#13 = DIRECTION('',(0.,0.,1.));
#14 = DIRECTION('',(1.,0.,-0.));
#15 = MANIFOLD_SOLID_BREP('',#16);
#16 = CLOSED_SHELL('',(#17,#244,#422,#497,#572,#701,#877));
#17 = ADVANCED_FACE('',(#18,#137),#32,.F.);
#18 = FACE_BOUND('',#19,.F.);
#19 = EDGE_LOOP('',(#20,#55,#83,#111));
#20 = ORIENTED_EDGE('',*,*,#21,.F.);
#21 = EDGE_CURVE('',#22,#24,#26,.T.);
#22 = VERTEX_POINT('',#23);
#23 = CARTESIAN_POINT('',(-10.,-10.,-10.));
#24 = VERTEX_POINT('',#25);
#25 = CARTESIAN_POINT('',(-10.,-10.,10.));
#26 = SURFACE_CURVE('',#27,(#31,#43),.PCURVE_S1.);
#27 = LINE('',#28,#29);
#28 = CARTESIAN_POINT('',(-10.,-10.,-10.));
#29 = VECTOR('',#30,1.);
#30 = DIRECTION('',(0.,0.,1.));
#31 = PCURVE('',#32,#37);
#32 = PLANE('',#33);
#33 = AXIS2_PLACEMENT_3D('',#34,#35,#36);
#34 = CARTESIAN_POINT('',(-10.,-10.,-10.));
#35 = DIRECTION('',(1.,0.,0.));
#36 = DIRECTION('',(0.,0.,1.));
#37 = DEFINITIONAL_REPRESENTATION('',(#38),#42);
#38 = LINE('',#39,#40);
#39 = CARTESIAN_POINT('',(0.,0.));
#40 = VECTOR('',#41,1.);
#41 = DIRECTION('',(1.,0.));
#42 = ( GEOMETRIC_REPRESENTATION_CONTEXT(2) 
PARAMETRIC_REPRESENTATION_CONTEXT() REPRESENTATION_CONTEXT('2D SPACE',''
  ) );
#43 = PCURVE('',#44,#49);
#44 = PLANE('',#45);
#45 = AXIS2_PLACEMENT_3D('',#46,#47,#48);
#46 = CARTESIAN_POINT('',(-10.,-10.,-10.));
#47 = DIRECTION('',(0.,1.,0.));
#48 = DIRECTION('',(0.,0.,1.));
#49 = DEFINITIONAL_REPRESENTATION('',(#50),#54);
#50 = LINE('',#51,#52);
#51 = CARTESIAN_POINT('',(0.,0.));
#52 = VECTOR('',#53,1.);
#53 = DIRECTION('',(1.,0.));
#54 = ( GEOMETRIC_REPRESENTATION_CONTEXT(2) 
PARAMETRIC_REPRESENTATION_CONTEXT() REPRESENTATION_CONTEXT('2D SPACE',''
  ) );
#55 = ORIENTED_EDGE('',*,*,#56,.T.);
#56 = EDGE_CURVE('',#22,#57,#59,.T.);
#57 = VERTEX_POINT('',#58);
#58 = CARTESIAN_POINT('',(-10.,10.,-10.));
#59 = SURFACE_CURVE('',#60,(#64,#71),.PCURVE_S1.);
#60 = LINE('',#61,#62);
#61 = CARTESIAN_POINT('',(-10.,-10.,-10.));
#62 = VECTOR('',#63,1.);
#63 = DIRECTION('',(0.,1.,0.));
#64 = PCURVE('',#32,#65);
#65 = DEFINITIONAL_REPRESENTATION('',(#66),#70);
#66 = LINE('',#67,#68);
#67 = CARTESIAN_POINT('',(0.,0.));
#68 = VECTOR('',#69,1.);
#69 = DIRECTION('',(0.,-1.));
#70 = ( GEOMETRIC_REPRESENTATION_CONTEXT(2) 
PARAMETRIC_REPRESENTATION_CONTEXT() REPRESENTATION_CONTEXT('2D SPACE',''
  ) );
#71 = PCURVE('',#72,#77);
#72 = PLANE('',#73);
#73 = AXIS2_PLACEMENT_3D('',#74,#75,#76);
#74 = CARTESIAN_POINT('',(-10.,-10.,-10.));
#75 = DIRECTION('',(0.,0.,1.));
#76 = DIRECTION('',(1.,0.,0.));
#77 = DEFINITIONAL_REPRESENTATION('',(#78),#82);
#78 = LINE('',#79,#80);
#79 = CARTESIAN_POINT('',(0.,0.));
#80 = VECTOR('',#81,1.);
#81 = DIRECTION('',(0.,1.));
#82 = ( GEOMETRIC_REPRESENTATION_CONTEXT(2) 
PARAMETRIC_REPRESENTATION_CONTEXT() REPRESENTATION_CONTEXT('2D SPACE',''
  ) );
#83 = ORIENTED_EDGE('',*,*,#84,.T.);
#84 = EDGE_CURVE('',#57,#85,#87,.T.);
#85 = VERTEX_POINT('',#86);
#86 = CARTESIAN_POINT('',(-10.,10.,10.));
#87 = SURFACE_CURVE('',#88,(#92,#99),.PCURVE_S1.);
#88 = LINE('',#89,#90);
#89 = CARTESIAN_POINT('',(-10.,10.,-10.));
#90 = VECTOR('',#91,1.);
#91 = DIRECTION('',(0.,0.,1.));
#92 = PCURVE('',#32,#93);
#93 = DEFINITIONAL_REPRESENTATION('',(#94),#98);
#94 = LINE('',#95,#96);
#95 = CARTESIAN_POINT('',(0.,-20.));
#96 = VECTOR('',#97,1.);
#97 = DIRECTION('',(1.,0.));
#98 = ( GEOMETRIC_REPRESENTATION_CONTEXT(2) 
PARAMETRIC_REPRESENTATION_CONTEXT() REPRESENTATION_CONTEXT('2D SPACE',''
  ) );
#99 = PCURVE('',#100,#105);
#100 = PLANE('',#101);
#101 = AXIS2_PLACEMENT_3D('',#102,#103,#104);
#102 = CARTESIAN_POINT('',(-10.,10.,-10.));
#103 = DIRECTION('',(0.,1.,0.));
#104 = DIRECTION('',(0.,0.,1.));
#105 = DEFINITIONAL_REPRESENTATION('',(#106),#110);
#106 = LINE('',#107,#108);
#107 = CARTESIAN_POINT('',(0.,0.));
#108 = VECTOR('',#109,1.);
#109 = DIRECTION('',(1.,0.));
#110 = ( GEOMETRIC_REPRESENTATION_CONTEXT(2) 
PARAMETRIC_REPRESENTATION_CONTEXT() REPRESENTATION_CONTEXT('2D SPACE',''
  ) );
#111 = ORIENTED_EDGE('',*,*,#112,.F.);
#112 = EDGE_CURVE('',#24,#85,#113,.T.);
#113 = SURFACE_CURVE('',#114,(#118,#125),.PCURVE_S1.);
#114 = LINE('',#115,#116);
#115 = CARTESIAN_POINT('',(-10.,-10.,10.));
#116 = VECTOR('',#117,1.);
#117 = DIRECTION('',(0.,1.,0.));
#118 = PCURVE('',#32,#119);
#119 = DEFINITIONAL_REPRESENTATION('',(#120),#124);
#120 = LINE('',#121,#122);
#121 = CARTESIAN_POINT('',(20.,0.));
#122 = VECTOR('',#123,1.);
#123 = DIRECTION('',(0.,-1.));
#124 = ( GEOMETRIC_REPRESENTATION_CONTEXT(2) 
PARAMETRIC_REPRESENTATION_CONTEXT() REPRESENTATION_CONTEXT('2D SPACE',''
  ) );
#125 = PCURVE('',#126,#131);
#126 = PLANE('',#127);
#127 = AXIS2_PLACEMENT_3D('',#128,#129,#130);
#128 = CARTESIAN_POINT('',(-10.,-10.,10.));
#129 = DIRECTION('',(0.,0.,1.));
#130 = DIRECTION('',(1.,0.,0.));
#131 = DEFINITIONAL_REPRESENTATION('',(#132),#136);
#132 = LINE('',#133,#134);
#133 = CARTESIAN_POINT('',(0.,0.));
#134 = VECTOR('',#135,1.);
#135 = DIRECTION('',(0.,1.));
#136 = ( GEOMETRIC_REPRESENTATION_CONTEXT(2) 
PARAMETRIC_REPRESENTATION_CONTEXT() REPRESENTATION_CONTEXT('2D SPACE',''
  ) );
#137 = FACE_BOUND('',#138,.F.);
#138 = EDGE_LOOP('',(#139));
#139 = ORIENTED_EDGE('',*,*,#140,.F.);
#140 = EDGE_CURVE('',#141,#141,#143,.T.);
#141 = VERTEX_POINT('',#142);
#142 = CARTESIAN_POINT('',(-10.,0.,6.633249580711));
#143 = SURFACE_CURVE('',#144,(#149,#156),.PCURVE_S1.);
#144 = CIRCLE('',#145,6.633249580711);
#145 = AXIS2_PLACEMENT_3D('',#146,#147,#148);
#146 = CARTESIAN_POINT('',(-10.,0.,0.));
#147 = DIRECTION('',(1.,0.,0.));
#148 = DIRECTION('',(-0.,0.,1.));
#149 = PCURVE('',#32,#150);
#150 = DEFINITIONAL_REPRESENTATION('',(#151),#155);
#151 = CIRCLE('',#152,6.633249580711);
#152 = AXIS2_PLACEMENT_2D('',#153,#154);
#153 = CARTESIAN_POINT('',(10.,-10.));
#154 = DIRECTION('',(1.,0.));
#155 = ( GEOMETRIC_REPRESENTATION_CONTEXT(2) 
PARAMETRIC_REPRESENTATION_CONTEXT() REPRESENTATION_CONTEXT('2D SPACE',''
  ) );
#156 = PCURVE('',#157,#162);
#157 = SPHERICAL_SURFACE('',#158,12.);
#158 = AXIS2_PLACEMENT_3D('',#159,#160,#161);
#159 = CARTESIAN_POINT('',(0.,0.,0.));
#160 = DIRECTION('',(0.,0.,1.));
#161 = DIRECTION('',(1.,0.,0.));
#162 = DEFINITIONAL_REPRESENTATION('',(#163),#243);
#163 = B_SPLINE_CURVE_WITH_KNOTS('',8,(#164,#165,#166,#167,#168,#169,
    #170,#171,#172,#173,#174,#175,#176,#177,#178,#179,#180,#181,#182,
    #183,#184,#185,#186,#187,#188,#189,#190,#191,#192,#193,#194,#195,
    #196,#197,#198,#199,#200,#201,#202,#203,#204,#205,#206,#207,#208,
    #209,#210,#211,#212,#213,#214,#215,#216,#217,#218,#219,#220,#221,
    #222,#223,#224,#225,#226,#227,#228,#229,#230,#231,#232,#233,#234,
    #235,#236,#237,#238,#239,#240,#241,#242),.UNSPECIFIED.,.T.,.F.,(9,7,
    7,7,7,7,7,7,7,7,7,9),(0.,0.392699081699,1.129009859884,
    1.773281790796,2.337019730344,2.830290427448,3.261902287415,
    3.639562664885,4.300468325459,5.291826816319,5.787506061749,
    6.28318530718),.UNSPECIFIED.);
#164 = CARTESIAN_POINT('',(3.14159265359,0.585685543457));
#165 = CARTESIAN_POINT('',(3.174153541328,0.585685543457));
#166 = CARTESIAN_POINT('',(3.206714346331,0.583858925812));
#167 = CARTESIAN_POINT('',(3.239050737111,0.58020548215));
#168 = CARTESIAN_POINT('',(3.270937076392,0.574747339988));
#169 = CARTESIAN_POINT('',(3.30216268192,0.567527959934));
#170 = CARTESIAN_POINT('',(3.332542778056,0.558609540982));
#171 = CARTESIAN_POINT('',(3.361924138154,0.548068833864));
#172 = CARTESIAN_POINT('',(3.443175316918,0.513346103668));
#173 = CARTESIAN_POINT('',(3.492227257949,0.485298362968));
#174 = CARTESIAN_POINT('',(3.53653982327,0.452413096841));
#175 = CARTESIAN_POINT('',(3.575699255758,0.415373601508));
#176 = CARTESIAN_POINT('',(3.60967555786,0.374870223545));
#177 = CARTESIAN_POINT('',(3.638572268132,0.331530570148));
#178 = CARTESIAN_POINT('',(3.662546955107,0.28592999742));
#179 = CARTESIAN_POINT('',(3.698545952339,0.197181330823));
#180 = CARTESIAN_POINT('',(3.711689452935,0.154439203206));
#181 = CARTESIAN_POINT('',(3.721275682142,0.110725547196));
#182 = CARTESIAN_POINT('',(3.727397457698,6.636829644662E-02));
#183 = CARTESIAN_POINT('',(3.730114806856,2.167553199152E-02));
#184 = CARTESIAN_POINT('',(3.729444663303,-2.305340272906E-02));
#185 = CARTESIAN_POINT('',(3.72536213031,-6.751569356609E-02));
#186 = CARTESIAN_POINT('',(3.711198757125,-0.149789406777));
#187 = CARTESIAN_POINT('',(3.701931527609,-0.187737453136));
#188 = CARTESIAN_POINT('',(3.689967279803,-0.225027254455));
#189 = CARTESIAN_POINT('',(3.67524741083,-0.261438736748));
#190 = CARTESIAN_POINT('',(3.657698903924,-0.296738920653));
#191 = CARTESIAN_POINT('',(3.637245519844,-0.330676663532));
#192 = CARTESIAN_POINT('',(3.61382900905,-0.362981157766));
#193 = CARTESIAN_POINT('',(3.564357117277,-0.419957379523));
#194 = CARTESIAN_POINT('',(3.538997483553,-0.445078466421));
#195 = CARTESIAN_POINT('',(3.5113612929,-0.46854145234));
#196 = CARTESIAN_POINT('',(3.481475973886,-0.490148870939));
#197 = CARTESIAN_POINT('',(3.449415421962,-0.509698537231));
#198 = CARTESIAN_POINT('',(3.415323683152,-0.52699269442));
#199 = CARTESIAN_POINT('',(3.379430192131,-0.541851460684));
#200 = CARTESIAN_POINT('',(3.309322958933,-0.564870332525));
#201 = CARTESIAN_POINT('',(3.275460052932,-0.573635580098));
#202 = CARTESIAN_POINT('',(3.240655223594,-0.580325673122));
#203 = CARTESIAN_POINT('',(3.205156113941,-0.584861332366));
#204 = CARTESIAN_POINT('',(3.169250716407,-0.587190001383));
#205 = CARTESIAN_POINT('',(3.133247998288,-0.587291568166));
#206 = CARTESIAN_POINT('',(3.097453122086,-0.585179934086));
#207 = CARTESIAN_POINT('',(3.031256412782,-0.577151862282));
#208 = CARTESIAN_POINT('',(3.00073975002,-0.571744064437));
#209 = CARTESIAN_POINT('',(2.970787317966,-0.564703706413));
#210 = CARTESIAN_POINT('',(2.941574976715,-0.556077438439));
#211 = CARTESIAN_POINT('',(2.913255638278,-0.545926785167));
#212 = CARTESIAN_POINT('',(2.885954160645,-0.534324799706));
#213 = CARTESIAN_POINT('',(2.859766848308,-0.521352343353));
#214 = CARTESIAN_POINT('',(2.791013303334,-0.482141874387));
#215 = CARTESIAN_POINT('',(2.750893145732,-0.453251821527));
#216 = CARTESIAN_POINT('',(2.714789578774,-0.420877904234));
#217 = CARTESIAN_POINT('',(2.68285280475,-0.385513922944));
#218 = CARTESIAN_POINT('',(2.655050885311,-0.347637926792));
#219 = CARTESIAN_POINT('',(2.631288540494,-0.307688782886));
#220 = CARTESIAN_POINT('',(2.611449083522,-0.26607093996));
#221 = CARTESIAN_POINT('',(2.571397009626,-0.15879491232));
#222 = CARTESIAN_POINT('',(2.55595765014,-9.152097154226E-02));
#223 = CARTESIAN_POINT('',(2.548757506911,-2.260904365647E-02));
#224 = CARTESIAN_POINT('',(2.549502235071,4.681498466414E-02));
#225 = CARTESIAN_POINT('',(2.558179678041,0.115697370303));
#226 = CARTESIAN_POINT('',(2.575012789285,0.182955870225));
#227 = CARTESIAN_POINT('',(2.600471962083,0.247355558035));
#228 = CARTESIAN_POINT('',(2.652083906535,0.337564037959));
#229 = CARTESIAN_POINT('',(2.671525068429,0.366568378215));
#230 = CARTESIAN_POINT('',(2.693244009724,0.394332369297));
#231 = CARTESIAN_POINT('',(2.717271532558,0.42067070604));
#232 = CARTESIAN_POINT('',(2.743618947562,0.445387602196));
#233 = CARTESIAN_POINT('',(2.772258067339,0.468279475472));
#234 = CARTESIAN_POINT('',(2.803099765422,0.48914221514));
#235 = CARTESIAN_POINT('',(2.86886019074,0.526426900347));
#236 = CARTESIAN_POINT('',(2.903779039501,0.542848838789));
#237 = CARTESIAN_POINT('',(2.940572063043,0.556859043266));
#238 = CARTESIAN_POINT('',(2.979003002112,0.568278880817));
#239 = CARTESIAN_POINT('',(3.018745644538,0.576954634564));
#240 = CARTESIAN_POINT('',(3.059393645678,0.582775223729));
#241 = CARTESIAN_POINT('',(3.100493101753,0.585685543457));
#242 = CARTESIAN_POINT('',(3.14159265359,0.585685543457));
#243 = ( GEOMETRIC_REPRESENTATION_CONTEXT(2) 
PARAMETRIC_REPRESENTATION_CONTEXT() REPRESENTATION_CONTEXT('2D SPACE',''
  ) );
#244 = ADVANCED_FACE('',(#245,#320),#44,.F.);
#245 = FACE_BOUND('',#246,.F.);
#246 = EDGE_LOOP('',(#247,#270,#271,#294));
#247 = ORIENTED_EDGE('',*,*,#248,.F.);
#248 = EDGE_CURVE('',#22,#249,#251,.T.);
#249 = VERTEX_POINT('',#250);
#250 = CARTESIAN_POINT('',(10.,-10.,-10.));
#251 = SURFACE_CURVE('',#252,(#256,#263),.PCURVE_S1.);
#252 = LINE('',#253,#254);
#253 = CARTESIAN_POINT('',(-10.,-10.,-10.));
#254 = VECTOR('',#255,1.);
#255 = DIRECTION('',(1.,0.,0.));
#256 = PCURVE('',#44,#257);
#257 = DEFINITIONAL_REPRESENTATION('',(#258),#262);
#258 = LINE('',#259,#260);
#259 = CARTESIAN_POINT('',(0.,0.));
#260 = VECTOR('',#261,1.);
#261 = DIRECTION('',(0.,1.));
#262 = ( GEOMETRIC_REPRESENTATION_CONTEXT(2) 
PARAMETRIC_REPRESENTATION_CONTEXT() REPRESENTATION_CONTEXT('2D SPACE',''
  ) );
#263 = PCURVE('',#72,#264);
#264 = DEFINITIONAL_REPRESENTATION('',(#265),#269);
#265 = LINE('',#266,#267);
#266 = CARTESIAN_POINT('',(0.,0.));
#267 = VECTOR('',#268,1.);
#268 = DIRECTION('',(1.,0.));
#269 = ( GEOMETRIC_REPRESENTATION_CONTEXT(2) 
PARAMETRIC_REPRESENTATION_CONTEXT() REPRESENTATION_CONTEXT('2D SPACE',''
  ) );
#270 = ORIENTED_EDGE('',*,*,#21,.T.);
#271 = ORIENTED_EDGE('',*,*,#272,.T.);
#272 = EDGE_CURVE('',#24,#273,#275,.T.);
#273 = VERTEX_POINT('',#274);
#274 = CARTESIAN_POINT('',(10.,-10.,10.));
#275 = SURFACE_CURVE('',#276,(#280,#287),.PCURVE_S1.);
#276 = LINE('',#277,#278);
#277 = CARTESIAN_POINT('',(-10.,-10.,10.));
#278 = VECTOR('',#279,1.);
#279 = DIRECTION('',(1.,0.,0.));
#280 = PCURVE('',#44,#281);
#281 = DEFINITIONAL_REPRESENTATION('',(#282),#286);
#282 = LINE('',#283,#284);
#283 = CARTESIAN_POINT('',(20.,0.));
#284 = VECTOR('',#285,1.);
#285 = DIRECTION('',(0.,1.));
#286 = ( GEOMETRIC_REPRESENTATION_CONTEXT(2) 
PARAMETRIC_REPRESENTATION_CONTEXT() REPRESENTATION_CONTEXT('2D SPACE',''
  ) );
#287 = PCURVE('',#126,#288);
#288 = DEFINITIONAL_REPRESENTATION('',(#289),#293);
#289 = LINE('',#290,#291);
#290 = CARTESIAN_POINT('',(0.,0.));
#291 = VECTOR('',#292,1.);
#292 = DIRECTION('',(1.,0.));
#293 = ( GEOMETRIC_REPRESENTATION_CONTEXT(2) 
PARAMETRIC_REPRESENTATION_CONTEXT() REPRESENTATION_CONTEXT('2D SPACE',''
  ) );
#294 = ORIENTED_EDGE('',*,*,#295,.F.);
#295 = EDGE_CURVE('',#249,#273,#296,.T.);
#296 = SURFACE_CURVE('',#297,(#301,#308),.PCURVE_S1.);
#297 = LINE('',#298,#299);
#298 = CARTESIAN_POINT('',(10.,-10.,-10.));
#299 = VECTOR('',#300,1.);
#300 = DIRECTION('',(0.,0.,1.));
#301 = PCURVE('',#44,#302);
#302 = DEFINITIONAL_REPRESENTATION('',(#303),#307);
#303 = LINE('',#304,#305);
#304 = CARTESIAN_POINT('',(0.,20.));
#305 = VECTOR('',#306,1.);
#306 = DIRECTION('',(1.,0.));
#307 = ( GEOMETRIC_REPRESENTATION_CONTEXT(2) 
PARAMETRIC_REPRESENTATION_CONTEXT() REPRESENTATION_CONTEXT('2D SPACE',''
  ) );
#308 = PCURVE('',#309,#314);
#309 = PLANE('',#310);
#310 = AXIS2_PLACEMENT_3D('',#311,#312,#313);
#311 = CARTESIAN_POINT('',(10.,-10.,-10.));
#312 = DIRECTION('',(1.,0.,0.));
#313 = DIRECTION('',(0.,0.,1.));
#314 = DEFINITIONAL_REPRESENTATION('',(#315),#319);
#315 = LINE('',#316,#317);
#316 = CARTESIAN_POINT('',(0.,0.));
#317 = VECTOR('',#318,1.);
#318 = DIRECTION('',(1.,0.));
#319 = ( GEOMETRIC_REPRESENTATION_CONTEXT(2) 
PARAMETRIC_REPRESENTATION_CONTEXT() REPRESENTATION_CONTEXT('2D SPACE',''
  ) );
#320 = FACE_BOUND('',#321,.F.);
#321 = EDGE_LOOP('',(#322));
#322 = ORIENTED_EDGE('',*,*,#323,.F.);
#323 = EDGE_CURVE('',#324,#324,#326,.T.);
#324 = VERTEX_POINT('',#325);
#325 = CARTESIAN_POINT('',(0.,-10.,6.633249580711));
#326 = SURFACE_CURVE('',#327,(#332,#339),.PCURVE_S1.);
#327 = CIRCLE('',#328,6.633249580711);
#328 = AXIS2_PLACEMENT_3D('',#329,#330,#331);
#329 = CARTESIAN_POINT('',(0.,-10.,0.));
#330 = DIRECTION('',(0.,1.,0.));
#331 = DIRECTION('',(0.,-0.,1.));
#332 = PCURVE('',#44,#333);
#333 = DEFINITIONAL_REPRESENTATION('',(#334),#338);
#334 = CIRCLE('',#335,6.633249580711);
#335 = AXIS2_PLACEMENT_2D('',#336,#337);
#336 = CARTESIAN_POINT('',(10.,10.));
#337 = DIRECTION('',(1.,0.));
#338 = ( GEOMETRIC_REPRESENTATION_CONTEXT(2) 
PARAMETRIC_REPRESENTATION_CONTEXT() REPRESENTATION_CONTEXT('2D SPACE',''
  ) );
#339 = PCURVE('',#157,#340);
#340 = DEFINITIONAL_REPRESENTATION('',(#341),#421);
#341 = B_SPLINE_CURVE_WITH_KNOTS('',8,(#342,#343,#344,#345,#346,#347,
    #348,#349,#350,#351,#352,#353,#354,#355,#356,#357,#358,#359,#360,
    #361,#362,#363,#364,#365,#366,#367,#368,#369,#370,#371,#372,#373,
    #374,#375,#376,#377,#378,#379,#380,#381,#382,#383,#384,#385,#386,
    #387,#388,#389,#390,#391,#392,#393,#394,#395,#396,#397,#398,#399,
    #400,#401,#402,#403,#404,#405,#406,#407,#408,#409,#410,#411,#412,
    #413,#414,#415,#416,#417,#418,#419,#420),.UNSPECIFIED.,.T.,.F.,(9,7,
    7,7,7,7,7,7,7,7,7,9),(0.,0.392699081699,1.129009859884,
    1.773281790796,2.337019730344,2.830290427448,3.261902287415,
    3.639562664885,4.300468325459,5.291826816319,5.787506061749,
    6.28318530718),.UNSPECIFIED.);
#342 = CARTESIAN_POINT('',(4.712388980385,0.585685543457));
#343 = CARTESIAN_POINT('',(4.744949868122,0.585685543457));
#344 = CARTESIAN_POINT('',(4.777510673126,0.583858925812));
#345 = CARTESIAN_POINT('',(4.809847063906,0.58020548215));
#346 = CARTESIAN_POINT('',(4.841733403187,0.574747339988));
#347 = CARTESIAN_POINT('',(4.872959008715,0.567527959934));
#348 = CARTESIAN_POINT('',(4.90333910485,0.558609540982));
#349 = CARTESIAN_POINT('',(4.932720464948,0.548068833864));
#350 = CARTESIAN_POINT('',(5.013971643713,0.513346103668));
#351 = CARTESIAN_POINT('',(5.063023584749,0.485298362968));
#352 = CARTESIAN_POINT('',(5.107336150051,0.452413096841));
#353 = CARTESIAN_POINT('',(5.146495582576,0.415373601508));
#354 = CARTESIAN_POINT('',(5.180471884625,0.374870223545));
#355 = CARTESIAN_POINT('',(5.209368594937,0.331530570148));
#356 = CARTESIAN_POINT('',(5.233343281902,0.28592999742));
#357 = CARTESIAN_POINT('',(5.269342279134,0.197181330823));
#358 = CARTESIAN_POINT('',(5.282485779731,0.154439203206));
#359 = CARTESIAN_POINT('',(5.292072008936,0.110725547196));
#360 = CARTESIAN_POINT('',(5.298193784492,6.636829644662E-02));
#361 = CARTESIAN_POINT('',(5.300911133652,2.167553199152E-02));
#362 = CARTESIAN_POINT('',(5.300240990098,-2.305340272906E-02));
#363 = CARTESIAN_POINT('',(5.296158457105,-6.751569356609E-02));
#364 = CARTESIAN_POINT('',(5.281995083919,-0.149789406777));
#365 = CARTESIAN_POINT('',(5.272727854404,-0.187737453136));
#366 = CARTESIAN_POINT('',(5.260763606597,-0.225027254455));
#367 = CARTESIAN_POINT('',(5.246043737624,-0.261438736748));
#368 = CARTESIAN_POINT('',(5.22849523072,-0.296738920653));
#369 = CARTESIAN_POINT('',(5.208041846638,-0.330676663532));
#370 = CARTESIAN_POINT('',(5.184625335845,-0.362981157766));
#371 = CARTESIAN_POINT('',(5.135153444072,-0.419957379523));
#372 = CARTESIAN_POINT('',(5.109793810347,-0.445078466421));
#373 = CARTESIAN_POINT('',(5.082157619694,-0.46854145234));
#374 = CARTESIAN_POINT('',(5.052272300679,-0.490148870939));
#375 = CARTESIAN_POINT('',(5.020211748757,-0.509698537231));
#376 = CARTESIAN_POINT('',(4.986120009947,-0.52699269442));
#377 = CARTESIAN_POINT('',(4.950226518926,-0.541851460684));
#378 = CARTESIAN_POINT('',(4.880119285728,-0.564870332525));
#379 = CARTESIAN_POINT('',(4.846256379726,-0.573635580098));
#380 = CARTESIAN_POINT('',(4.811451550391,-0.580325673122));
#381 = CARTESIAN_POINT('',(4.775952440736,-0.584861332366));
#382 = CARTESIAN_POINT('',(4.7400470432,-0.587190001383));
#383 = CARTESIAN_POINT('',(4.704044325084,-0.587291568166));
#384 = CARTESIAN_POINT('',(4.668249448881,-0.585179934086));
#385 = CARTESIAN_POINT('',(4.602052739577,-0.577151862282));
#386 = CARTESIAN_POINT('',(4.571536076815,-0.571744064437));
#387 = CARTESIAN_POINT('',(4.541583644761,-0.564703706413));
#388 = CARTESIAN_POINT('',(4.51237130351,-0.556077438439));
#389 = CARTESIAN_POINT('',(4.484051965073,-0.545926785167));
#390 = CARTESIAN_POINT('',(4.45675048744,-0.534324799706));
#391 = CARTESIAN_POINT('',(4.430563175103,-0.521352343353));
#392 = CARTESIAN_POINT('',(4.361809630129,-0.482141874387));
#393 = CARTESIAN_POINT('',(4.321689472521,-0.453251821527));
#394 = CARTESIAN_POINT('',(4.285585905578,-0.420877904234));
#395 = CARTESIAN_POINT('',(4.25364913153,-0.385513922944));
#396 = CARTESIAN_POINT('',(4.225847212125,-0.347637926792));
#397 = CARTESIAN_POINT('',(4.202084867283,-0.307688782886));
#398 = CARTESIAN_POINT('',(4.182245410317,-0.26607093996));
#399 = CARTESIAN_POINT('',(4.142193336421,-0.15879491232));
#400 = CARTESIAN_POINT('',(4.126753976933,-9.152097154226E-02));
#401 = CARTESIAN_POINT('',(4.119553833714,-2.260904365647E-02));
#402 = CARTESIAN_POINT('',(4.120298561851,4.681498466414E-02));
#403 = CARTESIAN_POINT('',(4.128976004846,0.115697370303));
#404 = CARTESIAN_POINT('',(4.145809116076,0.182955870225));
#405 = CARTESIAN_POINT('',(4.171268288878,0.247355558035));
#406 = CARTESIAN_POINT('',(4.22288023333,0.337564037959));
#407 = CARTESIAN_POINT('',(4.242321395225,0.366568378215));
#408 = CARTESIAN_POINT('',(4.264040336518,0.394332369297));
#409 = CARTESIAN_POINT('',(4.288067859353,0.42067070604));
#410 = CARTESIAN_POINT('',(4.314415274358,0.445387602196));
#411 = CARTESIAN_POINT('',(4.343054394134,0.468279475472));
#412 = CARTESIAN_POINT('',(4.373896092217,0.48914221514));
#413 = CARTESIAN_POINT('',(4.439656517535,0.526426900347));
#414 = CARTESIAN_POINT('',(4.474575366296,0.542848838789));
#415 = CARTESIAN_POINT('',(4.511368389838,0.556859043266));
#416 = CARTESIAN_POINT('',(4.549799328907,0.568278880817));
#417 = CARTESIAN_POINT('',(4.589541971333,0.576954634564));
#418 = CARTESIAN_POINT('',(4.630189972472,0.582775223729));
#419 = CARTESIAN_POINT('',(4.671289428548,0.585685543457));
#420 = CARTESIAN_POINT('',(4.712388980385,0.585685543457));
#421 = ( GEOMETRIC_REPRESENTATION_CONTEXT(2) 
PARAMETRIC_REPRESENTATION_CONTEXT() REPRESENTATION_CONTEXT('2D SPACE',''
  ) );
#422 = ADVANCED_FACE('',(#423,#471),#126,.T.);
#423 = FACE_BOUND('',#424,.T.);
#424 = EDGE_LOOP('',(#425,#426,#427,#450));
#425 = ORIENTED_EDGE('',*,*,#112,.F.);
#426 = ORIENTED_EDGE('',*,*,#272,.T.);
#427 = ORIENTED_EDGE('',*,*,#428,.T.);
#428 = EDGE_CURVE('',#273,#429,#431,.T.);
#429 = VERTEX_POINT('',#430);
#430 = CARTESIAN_POINT('',(10.,10.,10.));
#431 = SURFACE_CURVE('',#432,(#436,#443),.PCURVE_S1.);
#432 = LINE('',#433,#434);
#433 = CARTESIAN_POINT('',(10.,-10.,10.));
#434 = VECTOR('',#435,1.);
#435 = DIRECTION('',(0.,1.,0.));
#436 = PCURVE('',#126,#437);
#437 = DEFINITIONAL_REPRESENTATION('',(#438),#442);
#438 = LINE('',#439,#440);
#439 = CARTESIAN_POINT('',(20.,0.));
#440 = VECTOR('',#441,1.);
#441 = DIRECTION('',(0.,1.));
#442 = ( GEOMETRIC_REPRESENTATION_CONTEXT(2) 
PARAMETRIC_REPRESENTATION_CONTEXT() REPRESENTATION_CONTEXT('2D SPACE',''
  ) );
#443 = PCURVE('',#309,#444);
#444 = DEFINITIONAL_REPRESENTATION('',(#445),#449);
#445 = LINE('',#446,#447);
#446 = CARTESIAN_POINT('',(20.,0.));
#447 = VECTOR('',#448,1.);
#448 = DIRECTION('',(0.,-1.));
#449 = ( GEOMETRIC_REPRESENTATION_CONTEXT(2) 
PARAMETRIC_REPRESENTATION_CONTEXT() REPRESENTATION_CONTEXT('2D SPACE',''
  ) );
#450 = ORIENTED_EDGE('',*,*,#451,.F.);
#451 = EDGE_CURVE('',#85,#429,#452,.T.);
#452 = SURFACE_CURVE('',#453,(#457,#464),.PCURVE_S1.);
#453 = LINE('',#454,#455);
#454 = CARTESIAN_POINT('',(-10.,10.,10.));
#455 = VECTOR('',#456,1.);
#456 = DIRECTION('',(1.,0.,0.));
#457 = PCURVE('',#126,#458);
#458 = DEFINITIONAL_REPRESENTATION('',(#459),#463);
#459 = LINE('',#460,#461);
#460 = CARTESIAN_POINT('',(0.,20.));
#461 = VECTOR('',#462,1.);
#462 = DIRECTION('',(1.,0.));
#463 = ( GEOMETRIC_REPRESENTATION_CONTEXT(2) 
PARAMETRIC_REPRESENTATION_CONTEXT() REPRESENTATION_CONTEXT('2D SPACE',''
  ) );
#464 = PCURVE('',#100,#465);
#465 = DEFINITIONAL_REPRESENTATION('',(#466),#470);
#466 = LINE('',#467,#468);
#467 = CARTESIAN_POINT('',(20.,0.));
#468 = VECTOR('',#469,1.);
#469 = DIRECTION('',(0.,1.));
#470 = ( GEOMETRIC_REPRESENTATION_CONTEXT(2) 
PARAMETRIC_REPRESENTATION_CONTEXT() REPRESENTATION_CONTEXT('2D SPACE',''
  ) );
#471 = FACE_BOUND('',#472,.T.);
#472 = EDGE_LOOP('',(#473));
#473 = ORIENTED_EDGE('',*,*,#474,.F.);
#474 = EDGE_CURVE('',#475,#475,#477,.T.);
#475 = VERTEX_POINT('',#476);
#476 = CARTESIAN_POINT('',(6.633249580711,-1.624677573393E-15,10.));
#477 = SURFACE_CURVE('',#478,(#483,#490),.PCURVE_S1.);
#478 = CIRCLE('',#479,6.633249580711);
#479 = AXIS2_PLACEMENT_3D('',#480,#481,#482);
#480 = CARTESIAN_POINT('',(0.,0.,10.));
#481 = DIRECTION('',(0.,0.,1.));
#482 = DIRECTION('',(1.,0.,-0.));
#483 = PCURVE('',#126,#484);
#484 = DEFINITIONAL_REPRESENTATION('',(#485),#489);
#485 = CIRCLE('',#486,6.633249580711);
#486 = AXIS2_PLACEMENT_2D('',#487,#488);
#487 = CARTESIAN_POINT('',(10.,10.));
#488 = DIRECTION('',(1.,0.));
#489 = ( GEOMETRIC_REPRESENTATION_CONTEXT(2) 
PARAMETRIC_REPRESENTATION_CONTEXT() REPRESENTATION_CONTEXT('2D SPACE',''
  ) );
#490 = PCURVE('',#157,#491);
#491 = DEFINITIONAL_REPRESENTATION('',(#492),#496);
#492 = LINE('',#493,#494);
#493 = CARTESIAN_POINT('',(0.,0.985110783338));
#494 = VECTOR('',#495,1.);
#495 = DIRECTION('',(1.,0.));
#496 = ( GEOMETRIC_REPRESENTATION_CONTEXT(2) 
PARAMETRIC_REPRESENTATION_CONTEXT() REPRESENTATION_CONTEXT('2D SPACE',''
  ) );
#497 = ADVANCED_FACE('',(#498,#546),#72,.F.);
#498 = FACE_BOUND('',#499,.F.);
#499 = EDGE_LOOP('',(#500,#501,#502,#525));
#500 = ORIENTED_EDGE('',*,*,#56,.F.);
#501 = ORIENTED_EDGE('',*,*,#248,.T.);
#502 = ORIENTED_EDGE('',*,*,#503,.T.);
#503 = EDGE_CURVE('',#249,#504,#506,.T.);
#504 = VERTEX_POINT('',#505);
#505 = CARTESIAN_POINT('',(10.,10.,-10.));
#506 = SURFACE_CURVE('',#507,(#511,#518),.PCURVE_S1.);
#507 = LINE('',#508,#509);
#508 = CARTESIAN_POINT('',(10.,-10.,-10.));
#509 = VECTOR('',#510,1.);
#510 = DIRECTION('',(0.,1.,0.));
#511 = PCURVE('',#72,#512);
#512 = DEFINITIONAL_REPRESENTATION('',(#513),#517);
#513 = LINE('',#514,#515);
#514 = CARTESIAN_POINT('',(20.,0.));
#515 = VECTOR('',#516,1.);
#516 = DIRECTION('',(0.,1.));
#517 = ( GEOMETRIC_REPRESENTATION_CONTEXT(2) 
PARAMETRIC_REPRESENTATION_CONTEXT() REPRESENTATION_CONTEXT('2D SPACE',''
  ) );
#518 = PCURVE('',#309,#519);
#519 = DEFINITIONAL_REPRESENTATION('',(#520),#524);
#520 = LINE('',#521,#522);
#521 = CARTESIAN_POINT('',(0.,0.));
#522 = VECTOR('',#523,1.);
#523 = DIRECTION('',(0.,-1.));
#524 = ( GEOMETRIC_REPRESENTATION_CONTEXT(2) 
PARAMETRIC_REPRESENTATION_CONTEXT() REPRESENTATION_CONTEXT('2D SPACE',''
  ) );
#525 = ORIENTED_EDGE('',*,*,#526,.F.);
#526 = EDGE_CURVE('',#57,#504,#527,.T.);
#527 = SURFACE_CURVE('',#528,(#532,#539),.PCURVE_S1.);
#528 = LINE('',#529,#530);
#529 = CARTESIAN_POINT('',(-10.,10.,-10.));
#530 = VECTOR('',#531,1.);
#531 = DIRECTION('',(1.,0.,0.));
#532 = PCURVE('',#72,#533);
#533 = DEFINITIONAL_REPRESENTATION('',(#534),#538);
#534 = LINE('',#535,#536);
#535 = CARTESIAN_POINT('',(0.,20.));
#536 = VECTOR('',#537,1.);
#537 = DIRECTION('',(1.,0.));
#538 = ( GEOMETRIC_REPRESENTATION_CONTEXT(2) 
PARAMETRIC_REPRESENTATION_CONTEXT() REPRESENTATION_CONTEXT('2D SPACE',''
  ) );
#539 = PCURVE('',#100,#540);
#540 = DEFINITIONAL_REPRESENTATION('',(#541),#545);
#541 = LINE('',#542,#543);
#542 = CARTESIAN_POINT('',(0.,0.));
#543 = VECTOR('',#544,1.);
#544 = DIRECTION('',(0.,1.));
#545 = ( GEOMETRIC_REPRESENTATION_CONTEXT(2) 
PARAMETRIC_REPRESENTATION_CONTEXT() REPRESENTATION_CONTEXT('2D SPACE',''
  ) );
#546 = FACE_BOUND('',#547,.F.);
#547 = EDGE_LOOP('',(#548));
#548 = ORIENTED_EDGE('',*,*,#549,.F.);
#549 = EDGE_CURVE('',#550,#550,#552,.T.);
#550 = VERTEX_POINT('',#551);
#551 = CARTESIAN_POINT('',(6.633249580711,-1.624677573393E-15,-10.));
#552 = SURFACE_CURVE('',#553,(#558,#565),.PCURVE_S1.);
#553 = CIRCLE('',#554,6.633249580711);
#554 = AXIS2_PLACEMENT_3D('',#555,#556,#557);
#555 = CARTESIAN_POINT('',(0.,0.,-10.));
#556 = DIRECTION('',(0.,0.,1.));
#557 = DIRECTION('',(1.,0.,-0.));
#558 = PCURVE('',#72,#559);
#559 = DEFINITIONAL_REPRESENTATION('',(#560),#564);
#560 = CIRCLE('',#561,6.633249580711);
#561 = AXIS2_PLACEMENT_2D('',#562,#563);
#562 = CARTESIAN_POINT('',(10.,10.));
#563 = DIRECTION('',(1.,0.));
#564 = ( GEOMETRIC_REPRESENTATION_CONTEXT(2) 
PARAMETRIC_REPRESENTATION_CONTEXT() REPRESENTATION_CONTEXT('2D SPACE',''
  ) );
#565 = PCURVE('',#157,#566);
#566 = DEFINITIONAL_REPRESENTATION('',(#567),#571);
#567 = LINE('',#568,#569);
#568 = CARTESIAN_POINT('',(0.,-0.985110783338));
#569 = VECTOR('',#570,1.);
#570 = DIRECTION('',(1.,0.));
#571 = ( GEOMETRIC_REPRESENTATION_CONTEXT(2) 
PARAMETRIC_REPRESENTATION_CONTEXT() REPRESENTATION_CONTEXT('2D SPACE',''
  ) );
#572 = ADVANCED_FACE('',(#573,#599),#100,.T.);
#573 = FACE_BOUND('',#574,.T.);
#574 = EDGE_LOOP('',(#575,#576,#577,#578));
#575 = ORIENTED_EDGE('',*,*,#526,.F.);
#576 = ORIENTED_EDGE('',*,*,#84,.T.);
#577 = ORIENTED_EDGE('',*,*,#451,.T.);
#578 = ORIENTED_EDGE('',*,*,#579,.F.);
#579 = EDGE_CURVE('',#504,#429,#580,.T.);
#580 = SURFACE_CURVE('',#581,(#585,#592),.PCURVE_S1.);
#581 = LINE('',#582,#583);
#582 = CARTESIAN_POINT('',(10.,10.,-10.));
#583 = VECTOR('',#584,1.);
#584 = DIRECTION('',(0.,0.,1.));
#585 = PCURVE('',#100,#586);
#586 = DEFINITIONAL_REPRESENTATION('',(#587),#591);
#587 = LINE('',#588,#589);
#588 = CARTESIAN_POINT('',(0.,20.));
#589 = VECTOR('',#590,1.);
#590 = DIRECTION('',(1.,0.));
#591 = ( GEOMETRIC_REPRESENTATION_CONTEXT(2) 
PARAMETRIC_REPRESENTATION_CONTEXT() REPRESENTATION_CONTEXT('2D SPACE',''
  ) );
#592 = PCURVE('',#309,#593);
#593 = DEFINITIONAL_REPRESENTATION('',(#594),#598);
#594 = LINE('',#595,#596);
#595 = CARTESIAN_POINT('',(0.,-20.));
#596 = VECTOR('',#597,1.);
#597 = DIRECTION('',(1.,0.));
#598 = ( GEOMETRIC_REPRESENTATION_CONTEXT(2) 
PARAMETRIC_REPRESENTATION_CONTEXT() REPRESENTATION_CONTEXT('2D SPACE',''
  ) );
#599 = FACE_BOUND('',#600,.T.);
#600 = EDGE_LOOP('',(#601));
#601 = ORIENTED_EDGE('',*,*,#602,.F.);
#602 = EDGE_CURVE('',#603,#603,#605,.T.);
#603 = VERTEX_POINT('',#604);
#604 = CARTESIAN_POINT('',(0.,10.,6.633249580711));
#605 = SURFACE_CURVE('',#606,(#611,#618),.PCURVE_S1.);
#606 = CIRCLE('',#607,6.633249580711);
#607 = AXIS2_PLACEMENT_3D('',#608,#609,#610);
#608 = CARTESIAN_POINT('',(0.,10.,0.));
#609 = DIRECTION('',(0.,1.,0.));
#610 = DIRECTION('',(0.,-0.,1.));
#611 = PCURVE('',#100,#612);
#612 = DEFINITIONAL_REPRESENTATION('',(#613),#617);
#613 = CIRCLE('',#614,6.633249580711);
#614 = AXIS2_PLACEMENT_2D('',#615,#616);
#615 = CARTESIAN_POINT('',(10.,10.));
#616 = DIRECTION('',(1.,0.));
#617 = ( GEOMETRIC_REPRESENTATION_CONTEXT(2) 
PARAMETRIC_REPRESENTATION_CONTEXT() REPRESENTATION_CONTEXT('2D SPACE',''
  ) );
#618 = PCURVE('',#157,#619);
#619 = DEFINITIONAL_REPRESENTATION('',(#620),#700);
#620 = B_SPLINE_CURVE_WITH_KNOTS('',8,(#621,#622,#623,#624,#625,#626,
    #627,#628,#629,#630,#631,#632,#633,#634,#635,#636,#637,#638,#639,
    #640,#641,#642,#643,#644,#645,#646,#647,#648,#649,#650,#651,#652,
    #653,#654,#655,#656,#657,#658,#659,#660,#661,#662,#663,#664,#665,
    #666,#667,#668,#669,#670,#671,#672,#673,#674,#675,#676,#677,#678,
    #679,#680,#681,#682,#683,#684,#685,#686,#687,#688,#689,#690,#691,
    #692,#693,#694,#695,#696,#697,#698,#699),.UNSPECIFIED.,.F.,.F.,(9,7,
    7,7,7,7,7,7,7,7,7,9),(0.,0.392699081699,1.129009859884,
    1.773281790796,2.337019730344,2.830290427448,3.261902287415,
    3.639562664885,4.300468325459,5.291826816319,5.787506061749,
    6.28318530718),.UNSPECIFIED.);
#621 = CARTESIAN_POINT('',(1.570796326795,0.585685543457));
#622 = CARTESIAN_POINT('',(1.538235439057,0.585685543457));
#623 = CARTESIAN_POINT('',(1.505674634054,0.583858925812));
#624 = CARTESIAN_POINT('',(1.473338243274,0.58020548215));
#625 = CARTESIAN_POINT('',(1.441451903992,0.574747339988));
#626 = CARTESIAN_POINT('',(1.410226298465,0.567527959934));
#627 = CARTESIAN_POINT('',(1.379846202329,0.558609540982));
#628 = CARTESIAN_POINT('',(1.350464842231,0.548068833864));
#629 = CARTESIAN_POINT('',(1.269213663467,0.513346103668));
#630 = CARTESIAN_POINT('',(1.220161722429,0.485298362968));
#631 = CARTESIAN_POINT('',(1.175849157131,0.452413096841));
#632 = CARTESIAN_POINT('',(1.136689724606,0.415373601508));
#633 = CARTESIAN_POINT('',(1.102713422543,0.374870223545));
#634 = CARTESIAN_POINT('',(1.073816712244,0.331530570148));
#635 = CARTESIAN_POINT('',(1.049842025278,0.28592999742));
#636 = CARTESIAN_POINT('',(1.013843028046,0.197181330823));
#637 = CARTESIAN_POINT('',(1.000699527449,0.154439203206));
#638 = CARTESIAN_POINT('',(0.991113298244,0.110725547196));
#639 = CARTESIAN_POINT('',(0.984991522687,6.636829644662E-02));
#640 = CARTESIAN_POINT('',(0.982274173527,2.167553199152E-02));
#641 = CARTESIAN_POINT('',(0.982944317082,-2.305340272906E-02));
#642 = CARTESIAN_POINT('',(0.987026850075,-6.751569356609E-02));
#643 = CARTESIAN_POINT('',(1.00119022326,-0.149789406777));
#644 = CARTESIAN_POINT('',(1.010457452776,-0.187737453136));
#645 = CARTESIAN_POINT('',(1.022421700582,-0.225027254455));
#646 = CARTESIAN_POINT('',(1.037141569555,-0.261438736748));
#647 = CARTESIAN_POINT('',(1.05469007646,-0.296738920653));
#648 = CARTESIAN_POINT('',(1.075143460541,-0.330676663532));
#649 = CARTESIAN_POINT('',(1.098559971334,-0.362981157766));
#650 = CARTESIAN_POINT('',(1.148031863107,-0.419957379523));
#651 = CARTESIAN_POINT('',(1.173391496832,-0.445078466421));
#652 = CARTESIAN_POINT('',(1.201027687486,-0.46854145234));
#653 = CARTESIAN_POINT('',(1.230913006499,-0.490148870939));
#654 = CARTESIAN_POINT('',(1.262973558421,-0.509698537231));
#655 = CARTESIAN_POINT('',(1.297065297233,-0.52699269442));
#656 = CARTESIAN_POINT('',(1.332958788254,-0.541851460684));
#657 = CARTESIAN_POINT('',(1.403066021451,-0.564870332525));
#658 = CARTESIAN_POINT('',(1.436928927453,-0.573635580098));
#659 = CARTESIAN_POINT('',(1.471733756791,-0.580325673122));
#660 = CARTESIAN_POINT('',(1.507232866445,-0.584861332366));
#661 = CARTESIAN_POINT('',(1.543138263979,-0.587190001383));
#662 = CARTESIAN_POINT('',(1.579140982097,-0.587291568166));
#663 = CARTESIAN_POINT('',(1.614935858298,-0.585179934086));
#664 = CARTESIAN_POINT('',(1.681132567603,-0.577151862282));
#665 = CARTESIAN_POINT('',(1.711649230365,-0.571744064437));
#666 = CARTESIAN_POINT('',(1.741601662419,-0.564703706413));
#667 = CARTESIAN_POINT('',(1.770814003669,-0.556077438439));
#668 = CARTESIAN_POINT('',(1.799133342107,-0.545926785167));
#669 = CARTESIAN_POINT('',(1.826434819739,-0.534324799706));
#670 = CARTESIAN_POINT('',(1.852622132077,-0.521352343353));
#671 = CARTESIAN_POINT('',(1.921375677051,-0.482141874387));
#672 = CARTESIAN_POINT('',(1.961495834648,-0.453251821527));
#673 = CARTESIAN_POINT('',(1.997599401617,-0.420877904234));
#674 = CARTESIAN_POINT('',(2.029536175609,-0.385513922944));
#675 = CARTESIAN_POINT('',(2.057338095075,-0.347637926792));
#676 = CARTESIAN_POINT('',(2.081100439886,-0.307688782886));
#677 = CARTESIAN_POINT('',(2.100939896862,-0.26607093996));
#678 = CARTESIAN_POINT('',(2.140991970759,-0.15879491232));
#679 = CARTESIAN_POINT('',(2.156431330241,-9.152097154226E-02));
#680 = CARTESIAN_POINT('',(2.163631473467,-2.260904365647E-02));
#681 = CARTESIAN_POINT('',(2.162886745302,4.681498466414E-02));
#682 = CARTESIAN_POINT('',(2.154209302337,0.115697370303));
#683 = CARTESIAN_POINT('',(2.137376191096,0.182955870225));
#684 = CARTESIAN_POINT('',(2.111917018302,0.247355558035));
#685 = CARTESIAN_POINT('',(2.06030507385,0.337564037959));
#686 = CARTESIAN_POINT('',(2.040863911955,0.366568378215));
#687 = CARTESIAN_POINT('',(2.019144970661,0.394332369297));
#688 = CARTESIAN_POINT('',(1.995117447828,0.42067070604));
#689 = CARTESIAN_POINT('',(1.968770032823,0.445387602196));
#690 = CARTESIAN_POINT('',(1.940130913046,0.468279475472));
#691 = CARTESIAN_POINT('',(1.909289214963,0.48914221514));
#692 = CARTESIAN_POINT('',(1.843528789644,0.526426900347));
#693 = CARTESIAN_POINT('',(1.808609940883,0.542848838789));
#694 = CARTESIAN_POINT('',(1.771816917341,0.556859043266));
#695 = CARTESIAN_POINT('',(1.733385978272,0.568278880817));
#696 = CARTESIAN_POINT('',(1.693643335846,0.576954634564));
#697 = CARTESIAN_POINT('',(1.652995334707,0.582775223729));
#698 = CARTESIAN_POINT('',(1.611895878631,0.585685543457));
#699 = CARTESIAN_POINT('',(1.570796326795,0.585685543457));
#700 = ( GEOMETRIC_REPRESENTATION_CONTEXT(2) 
PARAMETRIC_REPRESENTATION_CONTEXT() REPRESENTATION_CONTEXT('2D SPACE',''
  ) );
#701 = ADVANCED_FACE('',(#702,#868,#871,#874),#157,.F.);
#702 = FACE_BOUND('',#703,.F.);
#703 = EDGE_LOOP('',(#704,#705,#729,#787,#809,#810,#811,#867));
#704 = ORIENTED_EDGE('',*,*,#474,.F.);
#705 = ORIENTED_EDGE('',*,*,#706,.F.);
#706 = EDGE_CURVE('',#707,#475,#709,.T.);
#707 = VERTEX_POINT('',#708);
#708 = CARTESIAN_POINT('',(10.,-2.449293598295E-15,6.633249580711));
#709 = SEAM_CURVE('',#710,(#715,#722),.PCURVE_S1.);
#710 = CIRCLE('',#711,12.);
#711 = AXIS2_PLACEMENT_3D('',#712,#713,#714);
#712 = CARTESIAN_POINT('',(0.,0.,0.));
#713 = DIRECTION('',(-2.449293598295E-16,-1.,0.));
#714 = DIRECTION('',(1.,-2.449293598295E-16,0.));
#715 = PCURVE('',#157,#716);
#716 = DEFINITIONAL_REPRESENTATION('',(#717),#721);
#717 = LINE('',#718,#719);
#718 = CARTESIAN_POINT('',(6.28318530718,-6.28318530718));
#719 = VECTOR('',#720,1.);
#720 = DIRECTION('',(0.,1.));
#721 = ( GEOMETRIC_REPRESENTATION_CONTEXT(2) 
PARAMETRIC_REPRESENTATION_CONTEXT() REPRESENTATION_CONTEXT('2D SPACE',''
  ) );
#722 = PCURVE('',#157,#723);
#723 = DEFINITIONAL_REPRESENTATION('',(#724),#728);
#724 = LINE('',#725,#726);
#725 = CARTESIAN_POINT('',(0.,-6.28318530718));
#726 = VECTOR('',#727,1.);
#727 = DIRECTION('',(0.,1.));
#728 = ( GEOMETRIC_REPRESENTATION_CONTEXT(2) 
PARAMETRIC_REPRESENTATION_CONTEXT() REPRESENTATION_CONTEXT('2D SPACE',''
  ) );
#729 = ORIENTED_EDGE('',*,*,#730,.F.);
#730 = EDGE_CURVE('',#731,#707,#733,.T.);
#731 = VERTEX_POINT('',#732);
#732 = CARTESIAN_POINT('',(10.,-2.449293598295E-15,-6.633249580711));
#733 = SURFACE_CURVE('',#734,(#739,#780),.PCURVE_S1.);
#734 = CIRCLE('',#735,6.633249580711);
#735 = AXIS2_PLACEMENT_3D('',#736,#737,#738);
#736 = CARTESIAN_POINT('',(10.,0.,0.));
#737 = DIRECTION('',(1.,0.,0.));
#738 = DIRECTION('',(-0.,0.,1.));
#739 = PCURVE('',#157,#740);
#740 = DEFINITIONAL_REPRESENTATION('',(#741),#779);
#741 = B_SPLINE_CURVE_WITH_KNOTS('',8,(#742,#743,#744,#745,#746,#747,
    #748,#749,#750,#751,#752,#753,#754,#755,#756,#757,#758,#759,#760,
    #761,#762,#763,#764,#765,#766,#767,#768,#769,#770,#771,#772,#773,
    #774,#775,#776,#777,#778),.UNSPECIFIED.,.F.,.F.,(9,7,7,7,7,9),(
    3.14159265359,3.534291735289,4.221515128261,5.25235021772,
    5.76776776245,6.28318530718),.UNSPECIFIED.);
#742 = CARTESIAN_POINT('',(0.,-0.585685543457));
#743 = CARTESIAN_POINT('',(3.256088773779E-02,-0.585685543457));
#744 = CARTESIAN_POINT('',(6.512169274089E-02,-0.583858925812));
#745 = CARTESIAN_POINT('',(9.745808352131E-02,-0.58020548215));
#746 = CARTESIAN_POINT('',(0.129344422803,-0.574747339988));
#747 = CARTESIAN_POINT('',(0.16057002833,-0.567527959934));
#748 = CARTESIAN_POINT('',(0.190950124466,-0.558609540982));
#749 = CARTESIAN_POINT('',(0.220331484564,-0.548068833864));
#750 = CARTESIAN_POINT('',(0.298050003382,-0.51485578759));
#751 = CARTESIAN_POINT('',(0.344076833259,-0.489014039255));
#752 = CARTESIAN_POINT('',(0.38602174802,-0.458925533748));
#753 = CARTESIAN_POINT('',(0.423527087205,-0.425139121263));
#754 = CARTESIAN_POINT('',(0.456527304318,-0.388215433929));
#755 = CARTESIAN_POINT('',(0.485081694036,-0.348673579638));
#756 = CARTESIAN_POINT('',(0.509305131578,-0.306993243633));
#757 = CARTESIAN_POINT('',(0.55933569532,-0.198552778017));
#758 = CARTESIAN_POINT('',(0.579878840985,-0.12967278301));
#759 = CARTESIAN_POINT('',(0.591351285026,-5.847240302518E-02));
#760 = CARTESIAN_POINT('',(0.594187073061,1.374075357558E-02));
#761 = CARTESIAN_POINT('',(0.58848718783,8.578318318882E-02));
#762 = CARTESIAN_POINT('',(0.574080443104,0.156461983314));
#763 = CARTESIAN_POINT('',(0.550473596988,0.224431542569));
#764 = CARTESIAN_POINT('',(0.50067985464,0.32001235577));
#765 = CARTESIAN_POINT('',(0.481684724365,0.350810401994));
#766 = CARTESIAN_POINT('',(0.460243474513,0.380353825407));
#767 = CARTESIAN_POINT('',(0.436314534799,0.408438500301));
#768 = CARTESIAN_POINT('',(0.409873878155,0.434847568641));
#769 = CARTESIAN_POINT('',(0.380937897287,0.459353590258));
#770 = CARTESIAN_POINT('',(0.349589266351,0.481726227185));
#771 = CARTESIAN_POINT('',(0.282402946323,0.521769455843));
#772 = CARTESIAN_POINT('',(0.246565096543,0.539440042415));
#773 = CARTESIAN_POINT('',(0.208651199953,0.554541872493));
#774 = CARTESIAN_POINT('',(0.168911206668,0.566869832346));
#775 = CARTESIAN_POINT('',(0.127700800409,0.576245449068));
#776 = CARTESIAN_POINT('',(8.547220127959E-02,0.58253882732));
#777 = CARTESIAN_POINT('',(4.273616515586E-02,0.585685543457));
#778 = CARTESIAN_POINT('',(1.624677573393E-16,0.585685543457));
#779 = ( GEOMETRIC_REPRESENTATION_CONTEXT(2) 
PARAMETRIC_REPRESENTATION_CONTEXT() REPRESENTATION_CONTEXT('2D SPACE',''
  ) );
#780 = PCURVE('',#309,#781);
#781 = DEFINITIONAL_REPRESENTATION('',(#782),#786);
#782 = CIRCLE('',#783,6.633249580711);
#783 = AXIS2_PLACEMENT_2D('',#784,#785);
#784 = CARTESIAN_POINT('',(10.,-10.));
#785 = DIRECTION('',(1.,0.));
#786 = ( GEOMETRIC_REPRESENTATION_CONTEXT(2) 
PARAMETRIC_REPRESENTATION_CONTEXT() REPRESENTATION_CONTEXT('2D SPACE',''
  ) );
#787 = ORIENTED_EDGE('',*,*,#788,.F.);
#788 = EDGE_CURVE('',#550,#731,#789,.T.);
#789 = SEAM_CURVE('',#790,(#795,#802),.PCURVE_S1.);
#790 = CIRCLE('',#791,12.);
#791 = AXIS2_PLACEMENT_3D('',#792,#793,#794);
#792 = CARTESIAN_POINT('',(0.,0.,0.));
#793 = DIRECTION('',(-2.449293598295E-16,-1.,0.));
#794 = DIRECTION('',(1.,-2.449293598295E-16,0.));
#795 = PCURVE('',#157,#796);
#796 = DEFINITIONAL_REPRESENTATION('',(#797),#801);
#797 = LINE('',#798,#799);
#798 = CARTESIAN_POINT('',(6.28318530718,-6.28318530718));
#799 = VECTOR('',#800,1.);
#800 = DIRECTION('',(0.,1.));
#801 = ( GEOMETRIC_REPRESENTATION_CONTEXT(2) 
PARAMETRIC_REPRESENTATION_CONTEXT() REPRESENTATION_CONTEXT('2D SPACE',''
  ) );
#802 = PCURVE('',#157,#803);
#803 = DEFINITIONAL_REPRESENTATION('',(#804),#808);
#804 = LINE('',#805,#806);
#805 = CARTESIAN_POINT('',(0.,-6.28318530718));
#806 = VECTOR('',#807,1.);
#807 = DIRECTION('',(0.,1.));
#808 = ( GEOMETRIC_REPRESENTATION_CONTEXT(2) 
PARAMETRIC_REPRESENTATION_CONTEXT() REPRESENTATION_CONTEXT('2D SPACE',''
  ) );
#809 = ORIENTED_EDGE('',*,*,#549,.T.);
#810 = ORIENTED_EDGE('',*,*,#788,.T.);
#811 = ORIENTED_EDGE('',*,*,#812,.F.);
#812 = EDGE_CURVE('',#707,#731,#813,.T.);
#813 = SURFACE_CURVE('',#814,(#819,#860),.PCURVE_S1.);
#814 = CIRCLE('',#815,6.633249580711);
#815 = AXIS2_PLACEMENT_3D('',#816,#817,#818);
#816 = CARTESIAN_POINT('',(10.,0.,0.));
#817 = DIRECTION('',(1.,0.,0.));
#818 = DIRECTION('',(-0.,0.,1.));
#819 = PCURVE('',#157,#820);
#820 = DEFINITIONAL_REPRESENTATION('',(#821),#859);
#821 = B_SPLINE_CURVE_WITH_KNOTS('',8,(#822,#823,#824,#825,#826,#827,
    #828,#829,#830,#831,#832,#833,#834,#835,#836,#837,#838,#839,#840,
    #841,#842,#843,#844,#845,#846,#847,#848,#849,#850,#851,#852,#853,
    #854,#855,#856,#857,#858),.UNSPECIFIED.,.F.,.F.,(9,7,7,7,7,9),(0.,
    0.392699081699,1.079922474671,2.110757564131,2.62617510886,
    3.14159265359),.UNSPECIFIED.);
#822 = CARTESIAN_POINT('',(6.28318530718,0.585685543457));
#823 = CARTESIAN_POINT('',(6.250624419442,0.585685543457));
#824 = CARTESIAN_POINT('',(6.218063614439,0.583858925812));
#825 = CARTESIAN_POINT('',(6.185727223658,0.58020548215));
#826 = CARTESIAN_POINT('',(6.153840884377,0.574747339988));
#827 = CARTESIAN_POINT('',(6.122615278849,0.567527959934));
#828 = CARTESIAN_POINT('',(6.092235182714,0.558609540982));
#829 = CARTESIAN_POINT('',(6.062853822616,0.548068833864));
#830 = CARTESIAN_POINT('',(5.985135303797,0.51485578759));
#831 = CARTESIAN_POINT('',(5.93910847392,0.489014039255));
#832 = CARTESIAN_POINT('',(5.89716355916,0.458925533748));
#833 = CARTESIAN_POINT('',(5.859658219975,0.425139121264));
#834 = CARTESIAN_POINT('',(5.826658002863,0.388215433929));
#835 = CARTESIAN_POINT('',(5.798103613143,0.348673579638));
#836 = CARTESIAN_POINT('',(5.773880175602,0.306993243633));
#837 = CARTESIAN_POINT('',(5.723849611859,0.198552778017));
#838 = CARTESIAN_POINT('',(5.703306466195,0.12967278301));
#839 = CARTESIAN_POINT('',(5.691834022153,5.847240302509E-02));
#840 = CARTESIAN_POINT('',(5.688998234119,-1.374075357555E-02));
#841 = CARTESIAN_POINT('',(5.694698119349,-8.578318318888E-02));
#842 = CARTESIAN_POINT('',(5.709104864075,-0.156461983314));
#843 = CARTESIAN_POINT('',(5.732711710192,-0.224431542569));
#844 = CARTESIAN_POINT('',(5.782505452539,-0.32001235577));
#845 = CARTESIAN_POINT('',(5.801500582814,-0.350810401994));
#846 = CARTESIAN_POINT('',(5.822941832667,-0.380353825407));
#847 = CARTESIAN_POINT('',(5.84687077238,-0.408438500301));
#848 = CARTESIAN_POINT('',(5.873311429025,-0.434847568641));
#849 = CARTESIAN_POINT('',(5.902247409893,-0.459353590258));
#850 = CARTESIAN_POINT('',(5.933596040829,-0.481726227185));
#851 = CARTESIAN_POINT('',(6.000782360856,-0.521769455843));
#852 = CARTESIAN_POINT('',(6.036620210637,-0.539440042415));
#853 = CARTESIAN_POINT('',(6.074534107226,-0.554541872493));
#854 = CARTESIAN_POINT('',(6.114274100512,-0.566869832346));
#855 = CARTESIAN_POINT('',(6.155484506771,-0.576245449068));
#856 = CARTESIAN_POINT('',(6.1977131059,-0.58253882732));
#857 = CARTESIAN_POINT('',(6.240449142024,-0.585685543457));
#858 = CARTESIAN_POINT('',(6.28318530718,-0.585685543457));
#859 = ( GEOMETRIC_REPRESENTATION_CONTEXT(2) 
PARAMETRIC_REPRESENTATION_CONTEXT() REPRESENTATION_CONTEXT('2D SPACE',''
  ) );
#860 = PCURVE('',#309,#861);
#861 = DEFINITIONAL_REPRESENTATION('',(#862),#866);
#862 = CIRCLE('',#863,6.633249580711);
#863 = AXIS2_PLACEMENT_2D('',#864,#865);
#864 = CARTESIAN_POINT('',(10.,-10.));
#865 = DIRECTION('',(1.,0.));
#866 = ( GEOMETRIC_REPRESENTATION_CONTEXT(2) 
PARAMETRIC_REPRESENTATION_CONTEXT() REPRESENTATION_CONTEXT('2D SPACE',''
  ) );
#867 = ORIENTED_EDGE('',*,*,#706,.T.);
#868 = FACE_BOUND('',#869,.F.);
#869 = EDGE_LOOP('',(#870));
#870 = ORIENTED_EDGE('',*,*,#602,.F.);
#871 = FACE_BOUND('',#872,.F.);
#872 = EDGE_LOOP('',(#873));
#873 = ORIENTED_EDGE('',*,*,#140,.T.);
#874 = FACE_BOUND('',#875,.F.);
#875 = EDGE_LOOP('',(#876));
#876 = ORIENTED_EDGE('',*,*,#323,.T.);
#877 = ADVANCED_FACE('',(#878,#884),#309,.T.);
#878 = FACE_BOUND('',#879,.T.);
#879 = EDGE_LOOP('',(#880,#881,#882,#883));
#880 = ORIENTED_EDGE('',*,*,#295,.F.);
#881 = ORIENTED_EDGE('',*,*,#503,.T.);
#882 = ORIENTED_EDGE('',*,*,#579,.T.);
#883 = ORIENTED_EDGE('',*,*,#428,.F.);
#884 = FACE_BOUND('',#885,.T.);
#885 = EDGE_LOOP('',(#886,#887));
#886 = ORIENTED_EDGE('',*,*,#812,.F.);
#887 = ORIENTED_EDGE('',*,*,#730,.F.);
#888 = ( GEOMETRIC_REPRESENTATION_CONTEXT(3) 
GLOBAL_UNCERTAINTY_ASSIGNED_CONTEXT((#892)) GLOBAL_UNIT_ASSIGNED_CONTEXT
((#889,#890,#891)) REPRESENTATION_CONTEXT('Context #1',
  '3D Context with UNIT and UNCERTAINTY') );
#889 = ( LENGTH_UNIT() NAMED_UNIT(*) SI_UNIT(.MILLI.,.METRE.) );
#890 = ( NAMED_UNIT(*) PLANE_ANGLE_UNIT() SI_UNIT($,.RADIAN.) );
#891 = ( NAMED_UNIT(*) SI_UNIT($,.STERADIAN.) SOLID_ANGLE_UNIT() );
#892 = UNCERTAINTY_MEASURE_WITH_UNIT(LENGTH_MEASURE(1.E-07),#889,
  'distance_accuracy_value','confusion accuracy');
#893 = PRODUCT_RELATED_PRODUCT_CATEGORY('part',$,(#7));
ENDSEC;
END-ISO-10303-21;
